<svg xmlns="http://www.w3.org/2000/svg" width="787" height="727"><path fill="#43311d" d="m724 15 4 1 5 11 2 12 3 7 3 13 2 4 2 11 3 7 3 12 3 9 2 9 2 6-1 2-12 3-10 3-9 3-19 5-5 2-9 2-9 3-9 2-8 3-9 2-8 3-10 2-7 3-11 2-7 3-13 3-10 3-11 4-12 2-7 3-12 3-8 3-10 2-8 3-10 2-7 3-10 2-8 3-10 2-8 3-10 2-6 3-11 2-6 3-14 3-4 2-13 3-4 2-14 3-9 3-8 2-8 3-10 2-9 3-8 2-9 3-11 3-5 2-10 2-8 3-10 2-7 3-12 3-5 2-14 3-10 3-9 3-16 4-9 3-8 2-8 3-10 2-7 3-10 2-8 3-10 2-7 3-10 2-8 3-11 1-2 1v2l3 1 677 1 2 2v101l-3 5-63-1-1 304-2 3H486l-3-2-1-193-3-4H332l-1 5v190l-4 4H99l-4-3-1-302-2-1-62-1-2-2-1-88-3-21-4-10-3-13-3-10-2-8-3-9-2-9-3-7-2-9-2-5 2-3 12-3 4-2 9-1 10-4 12-3 4-2 14-3 4-2 11-2 7-3 13-3 8-3 9-2 9-3 9-2 7-3 10-2 9-3 8-2 9-3 10-2 6-3 11-2 7-3 11-2 6-3 13-3 4-2 12-2 7-3 12-3 9-3 9-2 8-3 10-2 3-2 15-3 6-3 11-2 7-3 11-2 6-3 11-2 6-3 11-2 7-3 13-3 9-3 9-2 5-2 12-3 9-3 11-3 5-2 10-2 8-3 10-2 7-3 10-2 7-3 11-2 7-3 10-2 8-3 12-3 10-3 8-2 4-2 14-3 4-2 13-3 9-3 8-2 4-2 12-2 6-3 14-3 7-3 10-2 6-3 9-1Zm-64 35-8 3-13 4-13 3-11 4v4l8 4 8 4 4 3 6 3 11 7 11 6 12 7 8 4h2v2l8 4 4 3 9 1 13-3 4-2 11-2 3-4-1-6-3-9-6-6-6-3-9-5-5-3-8-5-5-3-9-5-9-5-10-5ZM524 89l-11 4-12 3-4 2-15 3 1 5 3 3 14 7 8 5 7 4 8 5 12 6 5 4 8 4 9 6 10 5h7l5-3 13-3 18-5 8-4v-4l-9-4-10-6-6-3-7-4-5-4-8-4-12-7-11-6-6-4-7-4-1-1Zm-131 38-10 3-13 4-9 2-9 3-5 2v3l2 2 7 3 12 7 11 6 7 4 8 5 11 6 6 4 8 4 12 7 5 1 15-3 6-3 11-2 9-3 9-2-1-4-10-6-5-3-9-5-12-7-11-6-6-4-12-6-10-7-10-5Zm-134 38-14 5-9 2-10 3-11 3v5l5 3 6 3 5 3 6 4 6 3 13 8 9 5 8 5 12 6 6 4 5 3 3 2h7l10-4 12-3 5-2 12-3 5-3-1-5-7-3-10-6-16-9-4-3-5-2-7-4-8-5-11-6-6-4-10-5Zm-133 39-15 4-10 3-10 3-12 3v4l16 8 7 4 11 7 9 5 5 3 9 5 8 5 6 3 11 7 4 1h8l12-3 5-2 12-3 5-2 11-2v-4l-17-10-10-6-6-3-20-12-6-3-10-6-12-7-6-2Zm-96 58-1 1 1 7 4 11 2 9 5 15 10-1 8-2 5-2 13-3 6-3-1-5-9-4-5-3-6-4-8-4-12-7-5-3-2-2Zm55 62-39 1-2 4v41l4 2 9-11 5-5 5-5 4-4v-2l4-2 6-6v-2l4-2 5-6-1-3Zm138 0-46 1-9 7-16 16v2l-4 2-9 10-9 9-7 8-14 14-4 3 1 4 6 1 48-1 9-10 15-15 7-8 8-8v-2l4-2 6-7 5-5 10-10 5-7-2-2Zm139 0-46 1-9 7-6 7-5 5-26 26-5 5-9 10-9 9-4 3 2 4 53-1 23-23 6-7 5-5 24-24 6-7 5-5 1-4Zm141 0-23 1h-25l-7 5-5 5-9 10-18 18v2l-4 2-7 8-7 6-7 8-9 8 1 3 5 1 49-1 21-21 7-8 5-5 14-14v-2l4-2 5-5 5-5 1-3 4-2 5-6-1-3Zm136 0-6 1h-38l-9 6-1 3-4 2-6 7-5 5-10 10-7 8-19 19-7 8-5 3 1 4 7 1h43l5-3 6-5 5-5 2-4 3-1 7-8 6-6v-2l4-2 7-8 13-13 5-5 9-10 2-3-2-2Zm95 1-5 3-6 5-7 8-12 12-7 8-20 20-7 8-9 8 1 3 7 1h46l5-5 9-9 7-8 23-23 6-7 4-7v-12l-3-5Z"/><path fill="#d8c8b0" d="M332 523h147l4 5 1 193 5 2v2h-5l-2-2-143-1-6-3-2 4-5 2 1-3 3-3V525Zm1 3v189l2 2 1-6V538l1-9 1-3Zm105 82-9 3-5 10v6l5 8 7 4h6l9-5 3-5 1-8-3-7-6-5Zm-76-284 6 1-1 4-5 5-15 16-17 17-5 5-12 13-15 15-53 1-2-4 12-11 8-8 5-5 9-10 21-21 5-5 7-8 6-4ZM259 165l9 1 7 4 13 8 9 5 10 6 8 4 13 8 11 6 4 3 7 3-1 5-6 3-14 3-7 3-12 3-4 2h-7l-5-4-8-4-10-6-6-3-9-5-10-6-11-7-6-3-8-5-10-5-1-1v-5l16-4 7-3 11-2Zm-133 39 8 1 8 4 16 9 4 3 11 6 12 7 9 5 16 9 9 6-1 3-14 3-9 3-9 2-7 3-6 1h-8l-7-3-11-7-6-3-9-5-9-5-4-3-6-3-11-7-11-6-13-7 1-3 12-3 10-3 17-5Zm267-77h7l15 8 5 4 8 4 16 9 5 3 12 7 9 5 5 3 10 6 1 4-9 2-9 3-13 3-7 3-13 2-10-4-11-7-6-3-11-7-8-4-14-8-7-4-15-9-5-2-2-3 2-2 11-3 5-2 12-3 15-4Zm131-38h12l5 4 6 3 10 6 9 5 12 7 5 3 10 6 6 3 7 4 7 4 6 3-2 4-9 4-16 4-15 4-3 2h-7l-11-6-13-8-7-4-10-6-6-3-9-5-10-6-12-7-5-3-2-2v-4l15-3 10-4 12-3Zm115 235h6l2 3-9 9-5 5-9 10-12 12-3 4h-2l-2 4-10 10-2 3h-2l-2 4-5 5-8 7-6 1h-44l-4-2 1-4 6-4 14-15 12-12 7-8 8-8 7-8 5-5 3-1 2-4 8-5h40Zm-107 69-5 3v2h27l12-1-1-2h-21l-9-1Zm-309-69 5 1v3l-12 13-5 6-5 4-5 6h-2l-2 4-12 12-7 8-16 16-2 3-52 1-3-2 1-4 10-9 9-9 7-8 14-14 4-5h2l2-4 17-17 6-4Zm-109 69-6 4v1h47l3-3h-36l-4-2Zm389-69 5 1-2 4-5 6h-2l-2 4-7 6-4 5h-2l-2 4-13 13-6 7-5 5-21 21-51 1-4-2 2-4 8-7 6-7 8-7 8-9h2l2-4 19-19 7-8 8-7 3-2h26Zm-114 70-1 4h47v-3h-23Zm345-69h32l3 5v12l-5 9-5 5-25 25-7 8-9 9-3 3h-50l-4-2 2-4 8-7 9-10 23-23 7-8 12-12 4-5 5-4ZM660 50h6l10 5 9 5 9 5 5 3 8 5 5 3 9 5 8 5 5 6 3 9-1 6-2 2-13 3-10 3-9 1-7-2-5-4-5-2v-2l-9-3-8-5-13-8-6-3-11-7-6-3-2-2-7-3-9-5 1-3 14-5 14-3 9-3ZM85 324l5 1-2 4-5 6h-2l-2 4-6 6h-2l-2 4-4 5-5 5-5 4-7 9-4-2v-41l2-4Zm-55-62h5l4 4 8 4 12 7 6 3 8 5 10 5v4l-9 4-12 3-5 2-10 2h-6l-5-15-3-13-4-9v-5Z"/><path fill="#d8c8b0" d="M19 290h1l3 10 2 5 3 21 1 88 1 1 62 1 3 2 1 302 4 4-5-1-2-3-1-297-2-3-18-1H31l-5-3-1-4-1-91-1-15-4-8Zm81 432"/><path fill="#43311d" d="m438 608 8 1 7 6 2 6-1 8-3 5-9 5h-6l-8-5-4-7 1-9 5-8Z"/><path fill="#d8c8b0" d="M105 303h10v1h-6v4h675v3l-1-1-677-1-4-2 1-3Zm385 419h222l1 2-16 1H499l-10-1Zm294-308v3l-2 2h-62l-1 302-3 4-3-1 4-4 1-302 1-2h63ZM101 722h224l1 2-190 1-36-1Zm308-505h5l-4 2-4 3-12 2-6 3-12 2-6 3-12 2-5 3-15 3-7 3-9 2-9 3h-8v-1l10-2 8-3 12-3 4-2 14-3 4-2 11-2 6-3 14-3 9-3 8-2Zm262-74h2v2l-14 3-6 3-12 2-3 3-15 2-4 3-12 2-6 3h-9v-1l10-3 16-4 8-3 9-2 8-3 10-2 7-3Zm76-23h7v1l-7 2-3 2-12 2-6 3-12 2-5 3-13 2-5 3-12 2-6 2 2-3 16-4 4-2 10-2 8-3 13-3 9-3 10-3ZM724 13l4 1 6 11 2 12 3 5 2 13 3 6 2 12 3 4v9h-1l-3-11-2-4-2-10-3-9-3-12-2-5-2-10-4-9h-5ZM535 181h7v1l-8 2-9 3-9 2-2 2-13 2-5 3-15 3-5 3h-10v-1l11-3 5-2 11-2 7-3 11-2 6-3 11-2ZM179 283h7v1l-8 2-2 2-13 2-5 3-12 2-8 4-12 2-5 2h-5l3-2 8-3 10-2 7-3 10-2 8-3 11-2Zm211-174h8v1l-9 2-7 3-11 2-7 3-10 2-7 3-10 2-8 3h-6v-1l9-3 4-2 13-2 2-2 12-2 9-4 12-2 2-2Zm316-91h5l-4 3-5 2-11 2-6 3-13 3-4 2-12 2-6 3h-6v-1l6-2 4-2 12-2 5-3 12-2 8-4 12-2ZM302 248l3 1-8 4-12 2-4 3-13 2-6 3-12 2-6 3h-8v-1l17-5 9-2 9-3 9-2 7-3 11-2ZM566 58h7l-3 2-11 4-10 2-7 3-11 2-6 3-11 2-4 2-3-1 4-3 13-2 4-3 12-2 11-4 9-2Zm218 256h1l1 5v42l-1 12h-1ZM619 43h9v1l-9 2-9 3-8 2-4 2-14 3-8 3-3-1 9-4 16-4 3-2 13-2Zm165 330h2v41h-2ZM316 130h7v1l-7 2-4 2-14 3-4 2-13 3-4 2h-5l4-2 5-3 12-2 5-3 15-3Zm-127 37h2l-1 3-15 3-6 3-13 3-4 2h-8v-1l9-2 3-2 12-2 5-3 13-3Zm40-12h8v1l-8 2-8 3-10 2-7 3-13 2 3-3 11-2 6-3 12-2Z"/></svg>